<svg id="Layer_1" data-name="Layer 1" xmlns="http://www.w3.org/2000/svg" viewBox="0 0 64 64"><defs><style>.cls-1,.cls-2{fill:none;stroke:#111c47;stroke-miterlimit:10;stroke-width:2px;}.cls-1{stroke-linecap:round;}</style></defs><title>Icon Line</title><g id="Line"><rect class="cls-1" x="8.34" y="20.98" width="45.96" height="29.14" rx="4.87"/><rect class="cls-2" x="12.19" y="24.62" width="38.25" height="21.86" rx="4.23"/><path class="cls-1" d="M28,40.33v2.4H16.67v-2.4A5.06,5.06,0,0,1,19.17,36a4.57,4.57,0,0,0,6.3,0A5.06,5.06,0,0,1,28,40.33Z"/><path class="cls-2" d="M26.87,32.66a4.55,4.55,0,1,1-4.55-4.56A4.58,4.58,0,0,1,26.87,32.66Z"/><rect class="cls-1" x="32.03" y="28.91" width="13.93" height="5.81" rx="2.46"/><line class="cls-1" x1="32.03" y1="38.73" x2="45.96" y2="38.73"/><line class="cls-1" x1="32.03" y1="42.73" x2="45.96" y2="42.73"/><path class="cls-1" d="M33.06,11.19H29.58a6.42,6.42,0,0,0-6.42,6.42V21H27V18.8c0-2.3,1.52-4.17,3.4-4.17h1.84c1.87,0,3.4,1.87,3.4,4.17V21h3.83V17.61A6.42,6.42,0,0,0,33.06,11.19Z"/></g></svg>