<?xml version="1.0" encoding="utf-8"?>
<!-- Generator: Adobe Illustrator 25.0.1, SVG Export Plug-In . SVG Version: 6.00 Build 0)  -->
<svg version="1.1" id="Layer_1" xmlns="http://www.w3.org/2000/svg" xmlns:xlink="http://www.w3.org/1999/xlink" x="0px" y="0px"
	 viewBox="0 0 64 64" style="enable-background:new 0 0 64 64;" xml:space="preserve">
<style type="text/css">
	.st0{fill:none;stroke:#E44B5D;stroke-width:2;stroke-linecap:round;stroke-miterlimit:10;}
	.st1{fill:none;stroke:#E44B5D;stroke-width:2;stroke-miterlimit:10;}
</style>
<g id="Line">
	<path class="st0" d="M13.2,21h36.2c2.7,0,4.9,2.2,4.9,4.9v19.4c0,2.7-2.2,4.9-4.9,4.9H13.2c-2.7,0-4.9-2.2-4.9-4.9V25.8
		C8.3,23.2,10.5,21,13.2,21z"/>
	<path class="st1" d="M16.4,24.6h29.8c2.3,0,4.2,1.9,4.2,4.2v13.4c0,2.3-1.9,4.2-4.2,4.2H16.4c-2.3,0-4.2-1.9-4.2-4.2V28.9
		C12.2,26.5,14.1,24.6,16.4,24.6z"/>
	<path class="st0" d="M28,40.3v2.4H16.7v-2.4c0-1.8,1-3.4,2.5-4.3c1.8,1.7,4.5,1.7,6.3,0C27,36.9,28,38.5,28,40.3z"/>
	<path class="st1" d="M26.9,32.7c0,2.5-2,4.5-4.6,4.5s-4.5-2-4.5-4.6c0-2.5,2-4.5,4.5-4.5C24.8,28.1,26.9,30.2,26.9,32.7z"/>
	<path class="st0" d="M34.5,28.9h9c1.4,0,2.5,1.1,2.5,2.5v0.9c0,1.4-1.1,2.5-2.5,2.5h-9c-1.4,0-2.5-1.1-2.5-2.5v-0.9
		C32,30,33.1,28.9,34.5,28.9z"/>
	<line class="st0" x1="32" y1="38.7" x2="46" y2="38.7"/>
	<line class="st0" x1="32" y1="42.7" x2="46" y2="42.7"/>
	<path class="st0" d="M33.1,11.2h-3.5c-3.5,0-6.4,2.9-6.4,6.4c0,0,0,0,0,0V21H27v-2.2c0-2.3,1.5-4.2,3.4-4.2h1.8
		c1.9,0,3.4,1.9,3.4,4.2V21h3.8v-3.4C39.5,14.1,36.6,11.2,33.1,11.2z"/>
</g>
</svg>
