<?xml version="1.0" encoding="utf-8"?>
<!-- Generator: Adobe Illustrator 25.0.1, SVG Export Plug-In . SVG Version: 6.00 Build 0)  -->
<svg version="1.1" id="Layer_1" xmlns="http://www.w3.org/2000/svg" xmlns:xlink="http://www.w3.org/1999/xlink" x="0px" y="0px"
	 viewBox="0 0 64 64" style="enable-background:new 0 0 64 64;" xml:space="preserve">
<style type="text/css">
	.st0{fill:none;stroke:#E44B5D;stroke-width:2;stroke-linecap:round;stroke-miterlimit:10;}
	.st1{fill:none;stroke:#E44B5D;stroke-width:2;stroke-miterlimit:10;}
</style>
<g id="Line">
	<path class="st0" d="M13.5,11.6h37.1c1.3,0,2.3,1,2.3,2.3v23.2c0,1.3-1,2.3-2.3,2.3H13.5c-1.3,0-2.3-1-2.3-2.3V13.8
		C11.2,12.6,12.2,11.6,13.5,11.6z"/>
	<path class="st1" d="M17,15.6H47c0.7,0,1.2,0.5,1.2,1.2v17.4c0,0.7-0.5,1.2-1.2,1.2H17c-0.7,0-1.2-0.5-1.2-1.2V16.8
		C15.8,16.1,16.3,15.6,17,15.6z"/>
	<path class="st1" d="M23.2,39.4h17.7l0,0v2.7c0,1-0.8,1.9-1.8,1.9H25c-1,0-1.9-0.8-1.9-1.9L23.2,39.4L23.2,39.4z"/>
	<rect x="26.9" y="44" class="st0" width="10.2" height="4.6"/>
	<rect x="21" y="48.6" class="st1" width="22.1" height="3.9"/>
</g>
</svg>
