<svg id="Layer_1" data-name="Layer 1" xmlns="http://www.w3.org/2000/svg" viewBox="0 0 64 64"><defs><style>.cls-1,.cls-2,.cls-3{fill:none;stroke:#111c47;stroke-width:2px;}.cls-1,.cls-2{stroke-miterlimit:10;}.cls-2,.cls-3{stroke-linecap:round;}.cls-3{stroke-linejoin:round;}</style></defs><title>Icon Line</title><g id="Line"><path class="cls-1" d="M10.55,17.53H49.61a0,0,0,0,1,0,0V38.26a3.7,3.7,0,0,1-3.7,3.7H14.25a3.7,3.7,0,0,1-3.7-3.7V17.53A0,0,0,0,1,10.55,17.53Z"/><rect class="cls-2" x="7.9" y="12.87" width="44.36" height="4.66" rx="2.33"/><polygon class="cls-3" points="24.74 54.34 29.61 49.46 30.55 49.46 35.42 54.34 40.93 54.34 33.75 47.16 33.75 41.96 26.95 41.96 26.95 46.62 19.23 54.34 24.74 54.34"/><line class="cls-1" x1="15.52" y1="32.53" x2="30.08" y2="32.53"/><line class="cls-1" x1="33.46" y1="32.53" x2="44.61" y2="32.53"/><line class="cls-1" x1="15.52" y1="37.09" x2="44.61" y2="37.09"/><rect class="cls-2" x="17.5" y="23.37" width="8.04" height="9.16"/><rect class="cls-2" x="34.53" y="27.95" width="8.04" height="4.58"/></g></svg>