<?xml version="1.0" encoding="utf-8"?>
<!-- Generator: Adobe Illustrator 25.0.1, SVG Export Plug-In . SVG Version: 6.00 Build 0)  -->
<svg version="1.1" id="Layer_1" xmlns="http://www.w3.org/2000/svg" xmlns:xlink="http://www.w3.org/1999/xlink" x="0px" y="0px"
	 viewBox="0 0 64 64" style="enable-background:new 0 0 64 64;" xml:space="preserve">
<style type="text/css">
	.st0{fill:none;stroke:#E44B5D;stroke-width:2;stroke-miterlimit:10;}
</style>
<g id="Line">
	<path class="st0" d="M15.5,20.9H34c2.4,0,4.4,2,4.4,4.4v18.5c0,2.4-2,4.4-4.4,4.4H15.5c-2.4,0-4.4-2-4.4-4.4V25.2
		C11.1,22.8,13.1,20.9,15.5,20.9z"/>
	<path class="st0" d="M45,27.8h-6.6v13.6H45c0.4,0,0.8,0.1,1.1,0.4L50,45c0.8,0.6,1.9,0.5,2.5-0.3c0.3-0.3,0.4-0.7,0.4-1.1V25.7
		c0-1-0.8-1.8-1.8-1.8c-0.4,0-0.8,0.1-1.1,0.4l-3.9,3.1C45.8,27.7,45.4,27.8,45,27.8z"/>
	<path class="st0" d="M32,33.1l-11.3-6.5c-0.7-0.4-1.7-0.2-2.1,0.5c-0.2,0.3-0.2,0.6-0.2,0.9v13c0,0.9,0.7,1.6,1.6,1.6
		c0.3,0,0.5-0.1,0.8-0.2L32,35.8c0.7-0.4,1-1.4,0.6-2.1C32.4,33.5,32.2,33.3,32,33.1z"/>
	<rect x="25.8" y="15.9" class="st0" width="8.5" height="5"/>
</g>
</svg>
