<svg id="Layer_1" data-name="Layer 1" xmlns="http://www.w3.org/2000/svg" viewBox="0 0 64 64"><defs><style>.cls-1{fill:none;stroke:#111c47;stroke-miterlimit:10;stroke-width:2px;}</style></defs><title>Icon Line</title><g id="Line"><rect class="cls-1" x="11.1" y="20.85" width="27.27" height="27.27" rx="4.39"/><path class="cls-1" d="M45,27.82H38.37V41.46H45a1.84,1.84,0,0,1,1.13.39L50,45a1.79,1.79,0,0,0,2.91-1.39V25.7A1.79,1.79,0,0,0,50,24.3l-3.86,3.12A1.79,1.79,0,0,1,45,27.82Z"/><path class="cls-1" d="M32,33.14l-11.3-6.52A1.55,1.55,0,0,0,18.34,28V41a1.56,1.56,0,0,0,2.33,1.35L32,35.83A1.55,1.55,0,0,0,32,33.14Z"/><rect class="cls-1" x="25.83" y="15.87" width="8.46" height="4.98"/></g></svg>