<?xml version="1.0" encoding="utf-8"?>
<!-- Generator: Adobe Illustrator 25.0.1, SVG Export Plug-In . SVG Version: 6.00 Build 0)  -->
<svg version="1.1" id="Layer_1" xmlns="http://www.w3.org/2000/svg" xmlns:xlink="http://www.w3.org/1999/xlink" x="0px" y="0px"
	 viewBox="0 0 64 64" style="enable-background:new 0 0 64 64;" xml:space="preserve">
<style type="text/css">
	.st0{fill:none;stroke:#E44B5D;stroke-width:2;stroke-miterlimit:10;}
	.st1{fill:none;}
</style>
<path class="st0" d="M24.2,12.9h15.5c2.8,0,5.1,2.3,5.1,5.1v28c0,2.8-2.3,5.1-5.1,5.1H24.2c-2.8,0-5.1-2.3-5.1-5.1V18
	C19.1,15.2,21.4,12.9,24.2,12.9z"/>
<path class="st1" d="M24.2,12.9h15.4l0,0v1.2c0,1.3-1.1,2.4-2.4,2.4l0,0H26.6c-1.3,0-2.4-1.1-2.4-2.4l0,0L24.2,12.9L24.2,12.9z"/>
<path class="st1" d="M19.2,46.2c0.1,2.7,2.3,4.9,5.1,4.8h15.5c2.7,0,4.9-2.1,5.1-4.8H19.2z"/>
<circle class="st0" cx="32" cy="45.7" r="3"/>
<path class="st0" d="M38.5,34.1v4.5h-13v-4.5c0-2,1-3.9,2.6-5.1c1.9,2.2,5.2,2.4,7.4,0.4c0.2-0.1,0.3-0.3,0.4-0.4
	c0.2,0.2,0.5,0.4,0.7,0.6C37.8,30.8,38.5,32.4,38.5,34.1z"/>
<polygon class="st0" points="33.3,30.6 32,30.6 30.7,30.6 30.2,35.3 32,36.4 33.8,35.3 "/>
<path class="st0" d="M37.2,25.5c0,2.9-2.3,5.3-5.2,5.3s-5.3-2.3-5.3-5.2s2.3-5.3,5.2-5.3c0,0,0,0,0,0C34.9,20.2,37.2,22.5,37.2,25.5
	C37.3,25.4,37.3,25.4,37.2,25.5z"/>
</svg>
