<svg id="Layer_1" data-name="Layer 1" xmlns="http://www.w3.org/2000/svg" viewBox="0 0 64 64"><defs><style>.cls-1,.cls-2{fill:none;}.cls-1{stroke:#111c47;stroke-miterlimit:10;stroke-width:2px;}</style></defs><title>Icon Line</title><g id="Line"><rect class="cls-1" x="19.14" y="12.9" width="25.71" height="38.2" rx="5.08"/><path class="cls-2" d="M24.23,12.9H39.59a0,0,0,0,1,0,0v1.23a2.36,2.36,0,0,1-2.36,2.36H26.58a2.36,2.36,0,0,1-2.36-2.36V12.9A0,0,0,0,1,24.23,12.9Z"/><path class="cls-2" d="M19.17,46.25a5.06,5.06,0,0,0,5.06,4.85H39.77a5.06,5.06,0,0,0,5.06-4.85Z"/><circle class="cls-1" cx="32" cy="45.66" r="3.01"/><path class="cls-1" d="M38.49,34.11v4.53h-13V34.11A6.43,6.43,0,0,1,28.08,29a5.25,5.25,0,0,0,7.84,0,5.18,5.18,0,0,1,.67.57A6.52,6.52,0,0,1,38.49,34.11Z"/><polygon class="cls-1" points="33.28 30.56 32 30.56 30.72 30.56 30.24 35.31 32 36.36 33.76 35.31 33.28 30.56"/><path class="cls-1" d="M37.25,25.46A5.25,5.25,0,1,1,32,20.22,5.22,5.22,0,0,1,37.25,25.46Z"/></g></svg>