<svg id="Layer_1" data-name="Layer 1" xmlns="http://www.w3.org/2000/svg" viewBox="0 0 64 64"><defs><style>.cls-1,.cls-2{fill:none;stroke:#111c47;stroke-miterlimit:10;stroke-width:2px;}.cls-1{stroke-linecap:round;}</style></defs><title>Icon Line</title><g id="Line"><path class="cls-1" d="M16.89,19.3H47.11A2.89,2.89,0,0,1,50,22.2v7.39a0,0,0,0,1,0,0H14a0,0,0,0,1,0,0V22.2A2.89,2.89,0,0,1,16.89,19.3Z"/><path class="cls-2" d="M14,29.58H50a0,0,0,0,1,0,0V47.71a2.89,2.89,0,0,1-2.89,2.89H16.89A2.89,2.89,0,0,1,14,47.71V29.58A0,0,0,0,1,14,29.58Z"/><line class="cls-2" x1="14" y1="24.44" x2="27.96" y2="24.44"/><line class="cls-2" x1="34.51" y1="24.44" x2="38.03" y2="24.44"/><line class="cls-2" x1="41.51" y1="24.44" x2="45.04" y2="24.44"/><polyline class="cls-2" points="26.97 46.25 21.91 40.17 26.97 34.1"/><polyline class="cls-2" points="36.45 46.25 41.51 40.17 36.45 34.1"/><line class="cls-2" x1="31.8" y1="35.1" x2="31.8" y2="45.54"/></g></svg>