<?xml version="1.0" encoding="utf-8"?>
<!-- Generator: Adobe Illustrator 25.0.1, SVG Export Plug-In . SVG Version: 6.00 Build 0)  -->
<svg version="1.1" id="Layer_1" xmlns="http://www.w3.org/2000/svg" xmlns:xlink="http://www.w3.org/1999/xlink" x="0px" y="0px"
	 viewBox="0 0 64 64" style="enable-background:new 0 0 64 64;" xml:space="preserve">
<style type="text/css">
	.st0{fill:none;stroke:#60D1E0;stroke-miterlimit:10;}
</style>
<g id="Line">
	<path class="st0" d="M16.9,19.3h30.2c1.6,0,2.9,1.3,2.9,2.9c0,0,0,0,0,0v7.4l0,0H14l0,0v-7.4C14,20.6,15.3,19.3,16.9,19.3
		C16.9,19.3,16.9,19.3,16.9,19.3z"/>
	<path class="st0" d="M14,29.6h36l0,0v18.1c0,1.6-1.3,2.9-2.9,2.9H16.9c-1.6,0-2.9-1.3-2.9-2.9V29.6L14,29.6z"/>
	<line class="st0" x1="14" y1="24.4" x2="28" y2="24.4"/>
	<line class="st0" x1="34.5" y1="24.4" x2="38" y2="24.4"/>
	<line class="st0" x1="41.5" y1="24.4" x2="45" y2="24.4"/>
	<polyline class="st0" points="27,46.2 21.9,40.2 27,34.1 	"/>
	<polyline class="st0" points="36.5,46.2 41.5,40.2 36.5,34.1 	"/>
	<line class="st0" x1="31.8" y1="35.1" x2="31.8" y2="45.5"/>
</g>
<image style="overflow:visible;" width="1125" height="2436" xlink:href="../../Documents/T&apos;Naidar/Tnaidar Scratch Files/Artboard 1.jpg"  transform="matrix(1.1268 0 0 0.3346 -624.5402 426.0753)">
</image>
</svg>
