<svg id="Layer_1" data-name="Layer 1" xmlns="http://www.w3.org/2000/svg" viewBox="0 0 97 31"><defs><style>.cls-1{fill:#181b35;}.cls-2{fill:#fff;}.cls-3{fill:#e83d5c;}</style></defs><rect id="BG" class="cls-1" width="97" height="31"/><g id="LOGO"><path class="cls-2" d="M32.63,4.36c-.34,2.29-.73,4.93-.75,5.11s-.13.26-.35.31A34.5,34.5,0,0,0,28.07,11a.78.78,0,0,0-.41.47c-.13.4.95-.08.95-.08l2.6-1c.51-.16.51-.16.45.41-.16,1.18-.33,2.32-.5,3.5s-.3,2.27-.43,3.4-.25,2.08-.35,3.11c-.09.85-.16,1.64-.21,2.48-.14,1.91-.33,3.84-.44,5.74,0,.43-.1.81-.11,1.22,0,0,.27,1,.64.57s.32-.59.32-.59c.1-1.49.24-3,.34-4.48.19-1.7.38-3.43.56-5.17l1.38-10.4c0-.24,0-.24.29-.34A27.16,27.16,0,0,1,36.32,9c1.52-.37,3-.74,4.55-1,1-.16.52-.15,1.45-.3,1.15-.2,2.3-.38,3.46-.55s2.75-.27,2.33-.48a5.21,5.21,0,0,0-1.79,0c-1.29.18-2.58.36-3.86.58s-1.37.29-2.73.58c-2.11.4-4.24,1-6.34,1.44C33,9.37,33,9.4,33,9c0-.1,0-.14,0-.19.08-.7,1.19-8.23.6-8.19-.37,0-.45.05-.51.43,0,.13-.23,1.65-.48,3.35"/><path class="cls-2" d="M46.58,14.23a1.3,1.3,0,0,1-.46-.91c-.09-.4-.07-.77-.15-1.12-.07-.54-.48-.77-1-.44a.94.94,0,0,1-1,.17,1.78,1.78,0,0,0-1.75.6A6.27,6.27,0,0,0,41,14.63a3,3,0,0,0-.26.93.6.6,0,0,0,0,.2,1,1,0,0,1-.35.17c-.53,0-.69-.5-1-1.11-.15-.4-.26-.8-.38-1.2a1,1,0,0,0-.47-.56,1.29,1.29,0,0,0-1.12.2,8.25,8.25,0,0,0-2,2,7.21,7.21,0,0,0-.72.93c-.08.08-.09,0-.09,0a2.29,2.29,0,0,1,.06-.58c.11-.51.22-1,.28-1.41,0-.28-.15-.4-.42-.39s-.31.2-.34.38c-.11.41-.18.78-.25,1.18a8,8,0,0,0-.1,1.54c0,.27.16.4.52.42s.31-.15.48-.34.13-.2.2-.28c.37-.56.69-1.08,1.08-1.63A5.48,5.48,0,0,1,38,13.5c.39-.19.44-.2.55.11s.17.67.27,1A2.37,2.37,0,0,0,39.66,16a.93.93,0,0,0,1.24-.09.3.3,0,0,0,.18,0,1.67,1.67,0,0,0,1.29-.5c.15-.14.28-.3.43-.46.54-.72,1.08-1.43,1.67-2.1a3,3,0,0,1,.75-.76c0,.22.06.4.08.58a7,7,0,0,0,.12.8A1.57,1.57,0,0,0,47,14.7c.84.11.58-.26.58-.26A1.08,1.08,0,0,1,46.58,14.23Zm-2.73-1.44c-.63.73-1.24,1.5-1.91,2.24,0,0,0,.05-.09,0a.23.23,0,0,1,0-.23,6.32,6.32,0,0,1,1.2-2.14,2.11,2.11,0,0,1,.46-.42.23.23,0,0,1,.33.07A.35.35,0,0,1,43.85,12.79Z"/><path class="cls-2" d="M58.25.31c0-.2,0-.24-.14-.25a.63.63,0,0,0-.68.47c-.26.51-.42,1.05-.64,1.55-.5,1.12-1,2.2-1.59,3.33S53.94,7.9,53.29,9.14a4.14,4.14,0,0,0-.73.19,2.88,2.88,0,0,0-.82.48A5.42,5.42,0,0,0,50.66,11a6.35,6.35,0,0,0-1,2.71,2.58,2.58,0,0,0,0,.46c0,.37.57.44.93.41a2.13,2.13,0,0,0,1.48-1c.16-.25.3-.49.44-.74.36-.68.69-1.3,1-2,.07-.11.16-.34.24-.46l.32.23a6,6,0,0,0,.62-.29.26.26,0,0,0,.12-.32.84.84,0,0,0-.14-.29,1.88,1.88,0,0,0-.2-.2l-.28-.2c.5-1.08.83-2.53,1.39-3.61.21-.51.43-1,.66-1.43a64.53,64.53,0,0,0-.83,7.39c-.16,2.28-.18,4.54-.26,6.81,0,.65,0,1.33,0,2,0,.14,0,.23.13.2s.2-.14.23-.24a2.73,2.73,0,0,1,0-.32,5.77,5.77,0,0,1,0-.83c.1-2.78.19-5.6.47-8.42.12-1.35.3-2.68.56-4.07A37.91,37.91,0,0,1,58.12.79C58.18.6,58.22.45,58.25.31ZM50.66,13.42c0-1.35.06-2.21,2.16-3.44C52.43,10.64,51.39,12.26,50.66,13.42Z"/><path class="cls-2" d="M69.33,5.94a.48.48,0,0,0-.41-.42,2,2,0,0,0-2.16.83,9.54,9.54,0,0,0-1.44,2.28c-.08.17-.09.21-.19.41,0-.09,0-.18-.07-.31-.06-.49-.07-1-.12-1.44,0-.23-.11-.3-.34-.3-.52.11-.64.23-.66.78,0,.06,0,.14,0,.2.12.93.28,1.85.42,2.78a5.32,5.32,0,0,1-.79.18,1.08,1.08,0,0,1-1-.21,1.3,1.3,0,0,1-.46-.91c-.09-.4-.07-.77-.15-1.12-.07-.54-.48-.77-1-.44a.94.94,0,0,1-1,.17,1.78,1.78,0,0,0-1.75.6,6.47,6.47,0,0,0-1.21,2.1,2.54,2.54,0,0,0-.26.93c0,.27.08.38.31.39A1.6,1.6,0,0,0,58.41,12c.15-.14.29-.3.44-.47.54-.71,1.08-1.43,1.67-2.1a3,3,0,0,1,.75-.76,4.7,4.7,0,0,1,.08.58c0,.27.07.54.12.8A1.51,1.51,0,0,0,63,11.19a3.55,3.55,0,0,0,1.4-.15.5.5,0,0,1,0,.12.27.27,0,0,0,.13.2,1.08,1.08,0,0,0,.67-.09c.13-.07.16-.36.17-.5a11.24,11.24,0,0,1,.92-3A5.82,5.82,0,0,1,67.46,6.2a1,1,0,0,1,1-.4.64.64,0,0,1,.41.42c0,.18.13.2.3.12S69.36,6.07,69.33,5.94ZM59.9,9.28c-.62.73-1.24,1.5-1.91,2.24a.09.09,0,0,1-.09,0,.23.23,0,0,1,0-.23,6.32,6.32,0,0,1,1.2-2.14,2.37,2.37,0,0,1,.46-.42.24.24,0,0,1,.34.07A.36.36,0,0,1,59.9,9.28Z"/><path class="cls-2" d="M49.5,6.8l.28.11a.34.34,0,0,1,.27.4.19.19,0,0,0,.18.24,1.29,1.29,0,0,0,.33,0,.37.37,0,0,0,.27-.2.44.44,0,0,0-.2-.6,2.1,2.1,0,0,0-.72-.08S49.23,6.7,49.5,6.8Z"/><path class="cls-2" d="M50.28,8.74l.24-.19a.12.12,0,0,0,.07-.1c0-.09-.05-.08-.11-.07a1.22,1.22,0,0,0-.37.17c-.25.14-1.62,5.47-1.92,5.52,0,1,.53.31.53.31C49.06,14,50,9,50.28,8.74Z"/><path class="cls-3" d="M36.93,19.59l28.13-6.3a.69.69,0,0,0,.29-.13C67.19,11.82,37.64,19.4,36.93,19.59Z"/></g></svg>