<svg id="Layer_1" data-name="Layer 1" xmlns="http://www.w3.org/2000/svg" viewBox="0 0 97 31"><defs><style>.cls-1{fill:#e83d5c;}.cls-2{fill:#fff;}</style></defs><rect id="BG" class="cls-1" y="0.06" width="97" height="30.94"/><g id="LOGO"><path class="cls-2" d="M48.1,6.62a5,5,0,0,0-1.79,0c-1.3.18-2.6.37-3.89.59s-1.37.29-2.74.58c-2.13.4-4.27,1-6.38,1.44-.39.13-.43.16-.4-.29,0-.1,0-.14,0-.18C33,8,34.12.49,33.53.52c-.38,0-.46,0-.51.43s-1.22,8.17-1.24,8.5-.13.26-.35.31A31.09,31.09,0,0,0,28,11a.75.75,0,0,0-.42.46c-.13.4,1-.07,1-.07l2.61-1c.52-.16.52-.16.45.41-.16,1.19-.33,2.33-.5,3.52s-.3,2.28-.43,3.41-.25,2.08-.35,3.12c-.1.85-.16,1.65-.21,2.49-.15,1.92-.34,3.85-.44,5.76a10.4,10.4,0,0,0-.11,1.23s.26,1,.63.57.33-.59.33-.59c.1-1.5.24-3,.34-4.5.19-1.7.38-3.45.56-5.19l1.39-10.44c0-.24,0-.24.3-.34A25.46,25.46,0,0,1,36.24,9c1.54-.37,3.07-.74,4.58-1,1-.16.53-.15,1.46-.3,1.16-.2,2.32-.39,3.48-.55S48.53,6.83,48.1,6.62Z"/><path class="cls-2" d="M46.57,14.22a1.26,1.26,0,0,1-.47-.91c-.08-.4-.07-.77-.14-1.12-.07-.54-.49-.78-1-.44a1,1,0,0,1-1,.17,1.76,1.76,0,0,0-1.76.6A6.48,6.48,0,0,0,41,14.62a3.14,3.14,0,0,0-.26.94.6.6,0,0,0,0,.2.9.9,0,0,1-.35.18c-.53,0-.7-.51-.95-1.13a10.43,10.43,0,0,1-.38-1.2,1,1,0,0,0-.49-.56,1.3,1.3,0,0,0-1.12.2,9.1,9.1,0,0,0-2.06,2,7.34,7.34,0,0,0-.71.95c-.08.07-.1,0-.1,0a3,3,0,0,1,.06-.59c.11-.51.22-1,.29-1.42,0-.27-.16-.4-.43-.38s-.3.19-.34.38c-.11.41-.18.77-.25,1.18a8.08,8.08,0,0,0-.1,1.55c0,.27.15.39.52.42.22,0,.31-.15.49-.34s.12-.2.2-.29c.37-.56.69-1.08,1.08-1.63a5.5,5.5,0,0,1,1.77-1.54c.4-.19.45-.21.55.1s.17.67.28,1A2.37,2.37,0,0,0,39.6,16a1,1,0,0,0,1.25-.08A.3.3,0,0,0,41,16a1.69,1.69,0,0,0,1.3-.5c.15-.14.29-.3.44-.47.54-.71,1.08-1.42,1.67-2.1a3,3,0,0,1,.76-.76c0,.22.06.4.08.58a7,7,0,0,0,.12.8A1.59,1.59,0,0,0,47,14.7c.85.11.59-.26.59-.26A1.09,1.09,0,0,1,46.57,14.22Zm-2.75-1.44c-.63.73-1.25,1.51-1.92,2.25,0,0,0,.05-.09,0a.23.23,0,0,1,0-.23A6.37,6.37,0,0,1,43,12.67a2.45,2.45,0,0,1,.47-.42.24.24,0,0,1,.34.07A.36.36,0,0,1,43.82,12.78Z"/><path class="cls-2" d="M58.31.25c0-.2,0-.23-.14-.25a.64.64,0,0,0-.69.47c-.26.52-.42,1.06-.64,1.56-.5,1.13-1.05,2.21-1.6,3.34S54,7.87,53.32,9.12a3.94,3.94,0,0,0-.73.19,2.92,2.92,0,0,0-.83.48A5.3,5.3,0,0,0,50.67,11a6.22,6.22,0,0,0-1.05,2.71,2,2,0,0,0,0,.46c0,.38.58.45.94.42a2.16,2.16,0,0,0,1.49-1c.16-.25.3-.49.45-.74.36-.68.69-1.3,1-2,.07-.1.17-.34.24-.46l.32.23a5.34,5.34,0,0,0,.63-.29.26.26,0,0,0,.12-.32.73.73,0,0,0-.15-.29,1,1,0,0,0-.2-.2,3.4,3.4,0,0,0-.28-.21c.51-1.07.84-2.53,1.4-3.62.21-.51.44-1,.66-1.43a64.8,64.8,0,0,0-.82,7.41c-.16,2.3-.19,4.56-.26,6.84-.05.65,0,1.33,0,2,0,.15,0,.24.13.21s.21-.14.23-.24,0-.23,0-.32a5.91,5.91,0,0,1,0-.84c.1-2.78.2-5.62.48-8.44.12-1.37.3-2.7.56-4.09A36.89,36.89,0,0,1,58.18.74C58.24.54,58.28.39,58.31.25ZM50.68,13.41c0-1.36,0-2.21,2.17-3.45C52.45,10.62,51.4,12.25,50.68,13.41Z"/><path class="cls-2" d="M69.46,5.91a.48.48,0,0,0-.41-.42,2,2,0,0,0-2.18.83,9.55,9.55,0,0,0-1.45,2.29c-.08.16-.09.21-.19.4,0-.09,0-.17-.06-.3-.06-.5-.08-1-.13-1.45C65,7,64.93,7,64.7,7c-.52.11-.64.23-.66.79a1.37,1.37,0,0,0,0,.19c.11.94.28,1.86.41,2.79a4.2,4.2,0,0,1-.78.18,1.06,1.06,0,0,1-1-.21,1.31,1.31,0,0,1-.47-.91c-.08-.4-.07-.77-.14-1.12-.07-.54-.49-.78-1-.45a1,1,0,0,1-1,.18,1.76,1.76,0,0,0-1.76.6,6.51,6.51,0,0,0-1.22,2.1,2.54,2.54,0,0,0-.26.93c0,.28.09.39.31.4a1.58,1.58,0,0,0,1.29-.5,5.1,5.1,0,0,0,.45-.47c.54-.71,1.08-1.43,1.67-2.11a3.42,3.42,0,0,1,.76-.76,4.84,4.84,0,0,1,.08.59,7,7,0,0,0,.13.8,1.5,1.5,0,0,0,1.54,1.2A3.8,3.8,0,0,0,64.51,11a.5.5,0,0,1,0,.12.29.29,0,0,0,.14.2,1,1,0,0,0,.67-.1c.13-.06.15-.35.17-.5a11.41,11.41,0,0,1,.92-3,5.64,5.64,0,0,1,1.15-1.53c.33-.32.63-.51,1-.4a.6.6,0,0,1,.41.42c0,.17.14.2.31.12S69.49,6,69.46,5.91ZM60,9.26c-.63.73-1.25,1.5-1.92,2.25a.09.09,0,0,1-.09,0,.23.23,0,0,1,0-.23,6.39,6.39,0,0,1,1.21-2.15,1.71,1.71,0,0,1,.46-.42A.24.24,0,0,1,60,8.8.36.36,0,0,1,60,9.26Z"/><path class="cls-2" d="M49.51,6.77l.28.11a.34.34,0,0,1,.27.4.19.19,0,0,0,.18.24,1.27,1.27,0,0,0,.33,0,.34.34,0,0,0,.27-.2.43.43,0,0,0-.2-.6,2.1,2.1,0,0,0-.72-.08S49.23,6.67,49.51,6.77Z"/><path class="cls-2" d="M50.3,8.71l.23-.18a.14.14,0,0,0,.07-.11c0-.09-.05-.07-.1-.07a1.17,1.17,0,0,0-.38.17c-.25.15-1.63,5.5-1.93,5.54,0,1,.53.31.53.31C49.06,13.94,50,8.92,50.3,8.71Z"/><path class="cls-2" d="M36.86,19.6l28.3-6.32a.79.79,0,0,0,.3-.12C67.31,11.81,37.57,19.41,36.86,19.6Z"/></g></svg>